<?xml version="1.0" encoding="UTF-8" standalone="no"?><!DOCTYPE svg PUBLIC "-//W3C//DTD SVG 1.1//EN" "http://www.w3.org/Graphics/SVG/1.1/DTD/svg11.dtd"><svg width="100%" height="100%" viewBox="0 0 800 800" version="1.1" xmlns="http://www.w3.org/2000/svg" xmlns:xlink="http://www.w3.org/1999/xlink" xml:space="preserve" xmlns:serif="http://www.serif.com/" style="fill-rule:evenodd;clip-rule:evenodd;stroke-linejoin:round;stroke-miterlimit:2;"><g><path d="M418.87,54.26c-0,-0 381.13,325.693 381.13,455.78c-0,130.087 -103.384,235.7 -230.724,235.7c-127.34,0 -468.498,-354.034 -468.498,-354.034c-0,-0 48.901,38.585 97.136,45.612c63.762,9.289 128.011,-26.349 92.887,-70.736c-66.449,-83.974 -290.801,-307.623 -290.801,-307.623c0,-0 364.998,203.819 472.484,218.04c43.377,5.738 54.493,-49.606 27.774,-104.195c-29.033,-59.318 -81.388,-118.544 -81.388,-118.544Z" style="fill:url(#_Linear1);"/><circle cx="569.276" cy="510.04" r="171.142" style="fill:#fff;"/></g><defs><linearGradient id="_Linear1" x1="0" y1="0" x2="1" y2="0" gradientUnits="userSpaceOnUse" gradientTransform="matrix(800,0,0,691.481,2.84217e-14,400)"><stop offset="0" style="stop-color:#e52e71;stop-opacity:1"/><stop offset="1" style="stop-color:#ff8a00;stop-opacity:1"/></linearGradient></defs></svg>