<?xml version="1.0" encoding="UTF-8" standalone="no"?><!DOCTYPE svg PUBLIC "-//W3C//DTD SVG 1.1//EN" "http://www.w3.org/Graphics/SVG/1.1/DTD/svg11.dtd"><svg width="100%" height="100%" viewBox="0 0 800 800" version="1.1" xmlns="http://www.w3.org/2000/svg" xmlns:xlink="http://www.w3.org/1999/xlink" xml:space="preserve" xmlns:serif="http://www.serif.com/" style="fill-rule:evenodd;clip-rule:evenodd;stroke-linejoin:round;stroke-miterlimit:2;"><rect x="0" y="0" width="800" height="800" style="fill:#100e17;"/><g><path d="M414.292,138.133c0,-0 288.672,246.683 288.672,345.212c0,98.529 -78.304,178.522 -174.753,178.522c-96.448,0 -354.845,-268.149 -354.845,-268.149c-0,-0 37.039,29.225 73.572,34.547c48.294,7.036 96.957,-19.957 70.354,-53.576c-50.33,-63.603 -220.256,-232.997 -220.256,-232.997c-0,-0 276.453,154.375 357.864,165.145c32.854,4.347 41.274,-37.571 21.036,-78.918c-21.989,-44.928 -61.644,-89.786 -61.644,-89.786Z" style="fill:url(#_Linear1);"/><circle cx="528.211" cy="483.345" r="129.625" style="fill:#fff;"/></g><defs><linearGradient id="_Linear1" x1="0" y1="0" x2="1" y2="0" gradientUnits="userSpaceOnUse" gradientTransform="matrix(605.928,0,0,523.735,97.0359,400)"><stop offset="0" style="stop-color:#e52e71;stop-opacity:1"/><stop offset="1" style="stop-color:#ff8a00;stop-opacity:1"/></linearGradient></defs></svg>