<?xml version="1.0" encoding="UTF-8" standalone="no"?><!DOCTYPE svg PUBLIC "-//W3C//DTD SVG 1.1//EN" "http://www.w3.org/Graphics/SVG/1.1/DTD/svg11.dtd"><svg width="100%" height="100%" viewBox="0 0 800 600" version="1.1" xmlns="http://www.w3.org/2000/svg" xmlns:xlink="http://www.w3.org/1999/xlink" xml:space="preserve" xmlns:serif="http://www.serif.com/" style="fill-rule:evenodd;clip-rule:evenodd;stroke-linejoin:round;stroke-miterlimit:2;"><g><path d="M413.308,56.174c-0,-0 268.784,229.688 268.784,321.429c-0,91.741 -72.91,166.223 -162.714,166.223c-89.804,0 -330.398,-249.675 -330.398,-249.675c-0,-0 34.487,27.211 68.503,32.167c44.967,6.551 90.277,-18.582 65.507,-49.885c-46.862,-59.222 -205.082,-216.945 -205.082,-216.945c0,-0 257.407,143.739 333.21,153.768c30.591,4.047 38.43,-34.983 19.587,-73.482c-20.475,-41.832 -57.397,-83.6 -57.397,-83.6Z" style="fill:url(#_Linear1);"/><circle cx="519.378" cy="377.603" r="120.695" style="fill:#fff;"/></g><defs><linearGradient id="_Linear1" x1="0" y1="0" x2="1" y2="0" gradientUnits="userSpaceOnUse" gradientTransform="matrix(564.184,0,0,487.653,117.908,300)"><stop offset="0" style="stop-color:#e52e71;stop-opacity:1"/><stop offset="1" style="stop-color:#ff8a00;stop-opacity:1"/></linearGradient></defs></svg>