<?xml version="1.0" encoding="UTF-8" standalone="no"?><!DOCTYPE svg PUBLIC "-//W3C//DTD SVG 1.1//EN" "http://www.w3.org/Graphics/SVG/1.1/DTD/svg11.dtd"><svg width="100%" height="100%" viewBox="0 0 1300 950" version="1.1" xmlns="http://www.w3.org/2000/svg" xmlns:xlink="http://www.w3.org/1999/xlink" xml:space="preserve" xmlns:serif="http://www.serif.com/" style="fill-rule:evenodd;clip-rule:evenodd;stroke-linejoin:round;stroke-miterlimit:2;"><circle cx="607.733" cy="32.491" r="2.588" style="fill:#fff;"/><circle cx="878.012" cy="107.249" r="2.588" style="fill:#fff;"/><circle cx="444.416" cy="704.162" r="2.588" style="fill:#fff;"/><circle cx="706.643" cy="722.91" r="2.588" style="fill:#fff;"/><circle cx="258.096" cy="547.745" r="2.588" style="fill:#fff;"/><circle cx="191.689" cy="437.334" r="2.588" style="fill:#fff;"/><circle cx="277.949" cy="287.818" r="2.588" style="fill:#fff;"/><circle cx="184.789" cy="182.007" r="2.588" style="fill:#fff;"/><circle cx="1189.69" cy="469.537" r="2.588" style="fill:#fff;"/><circle cx="393.811" cy="884.731" r="2.588" style="fill:#fff;"/><circle cx="740.842" cy="841.329" r="2.588" style="fill:#fff;"/><circle cx="1104.59" cy="854.827" r="2.588" style="fill:#fff;"/><circle cx="974.622" cy="191.208" r="2.588" style="fill:#fff;"/><circle cx="22.321" cy="47.442" r="2.588" style="fill:#fff;"/><circle cx="5.07" cy="918.084" r="2.588" style="fill:#fff;"/><circle cx="497.321" cy="409.731" r="2.588" style="fill:#fff;"/><circle cx="416.321" cy="353.731" r="2.588" style="fill:#fff;"/><circle cx="754.949" cy="517.842" r="2.588" style="fill:#fff;"/><circle cx="373.108" cy="137.152" r="2.588" style="fill:#fff;"/><circle cx="1114.94" cy="701.861" r="2.588" style="fill:#fff;"/><circle cx="800.953" cy="218.811" r="2.588" style="fill:#fff;"/></svg>